<?xml version="1.0" encoding="UTF-8" standalone="no"?>
<svg
   width="752pt"
   height="752pt"
   version="1.1"
   viewBox="0 0 752 752"
   id="svg4"
   sodipodi:docname="E-mail.svg"
   inkscape:version="1.1.2 (b8e25be833, 2022-02-05)"
   xmlns:inkscape="http://www.inkscape.org/namespaces/inkscape"
   xmlns:sodipodi="http://sodipodi.sourceforge.net/DTD/sodipodi-0.dtd"
   xmlns="http://www.w3.org/2000/svg"
   xmlns:svg="http://www.w3.org/2000/svg">
  <defs
     id="defs8" />
  <sodipodi:namedview
     id="namedview6"
     pagecolor="#ffffff"
     bordercolor="#666666"
     borderopacity="1.0"
     inkscape:pageshadow="2"
     inkscape:pageopacity="0.0"
     inkscape:pagecheckerboard="0"
     inkscape:document-units="pt"
     showgrid="false"
     inkscape:zoom="6.6303191"
     inkscape:cx="445.22744"
     inkscape:cy="985.17128"
     inkscape:window-width="1920"
     inkscape:window-height="1017"
     inkscape:window-x="-8"
     inkscape:window-y="-8"
     inkscape:window-maximized="1"
     inkscape:current-layer="svg4" />
  <path
     d="M 376.28853,0.1178941 C 168.8211,0.1178941 0.62132381,168.26107 0.62132381,375.68377 c 0,207.44302 168.19570619,375.5862 375.66720619,375.5862 207.47148,0 375.66719,-168.14318 375.66719,-375.5862 0,-207.4227 -168.17943,-375.5658759 -375.66719,-375.5658759 z M 556.12006,238.07325 382.47164,399.18434 c -6.29461,5.82439 -14.93349,5.53046 -21.21265,-0.30195 L 187.60243,238.07234 Z m 7.37541,234.43624 v 56.74883 c 0,6.74607 -1.89947,11.56132 -8.64702,11.56132 H 183.06732 c -6.74752,0 -18.74836,-4.81525 -18.74836,-11.56132 V 281.64074 l 178.71049,156.90041 c 6.92229,6.3964 20.04399,9.92444 28.78542,9.92444 8.74142,0 16.20511,-3.52011 23.11093,-9.92444 L 563.50198,281.64074 Z"
     id="path2"
     style="stroke-width:2.03437" />
</svg>
